<?xml version="1.0" encoding="UTF-8"?>
<svg xmlns="http://www.w3.org/2000/svg" version="1.1" viewBox="0 0 596.17 595.28">
  <defs>
    <style>
      .cls-1 {
        fill: #143c7d;
      }

      .cls-2 {
        fill: #fff;
      }
    </style>
  </defs>
  <!-- Generator: Adobe Illustrator 28.7.1, SVG Export Plug-In . SVG Version: 1.2.0 Build 142)  -->
  <g>
    <g id="Layer_1">
      <circle class="cls-1" cx="297.64" cy="297.64" r="297.64"/>
      <g id="artwork">
        <path class="cls-2" d="M492.94,167.01c-20.06,1.75-36.87-3.16-37.55-10.97s15.02-15.57,35.08-17.33c20.06-1.75,36.87,3.16,37.55,10.97s-15.02,15.57-35.08,17.33ZM430.83,145.32l-2.06,11.67c-63.77,4.19-129.44,17.12-193.82,39.24-1.53,7.87-3.05,15.73-4.54,23.56-4.06,31.81-3.34,50.08-2.84,56.62,35.09-.21,64.76-7.34,90.88-19.1l-3.03,17.22c-39.04,22.24-83.9,23.78-99.42,23.6-1.38,7.75-2.73,15.41-4.04,22.97,30.14,14.61,42.4,29.83,42.4,56.57,0,38.85-46.46,114.86-75.23,118.76-11.02,1.5-22.67-.7-23.26-5.82,7.84-52.8,16.46-106.11,25.68-159.32-3.86-1.42-7.74-2.8-11.54-4.18-37.03-13.48-90.07-29.92-90.07-68.49,0-12.47,4.96-24.65,4.96-24.65,42.91-24.22,84.28-42.02,123.23-55.03,3.6-28.28,9.43-47.74,12.08-53.24h0c12.12-2.96,27.3-.92,27.98,4.93-2.67,12.77-5.29,25.6-7.87,38.45,77.39-21.55,143.47-24.7,190.51-23.76h0ZM185.3,309.85c6.04-34.22,12.32-68.36,18.8-102.26-37.19,14.61-73.77,32.36-109.11,53.37.04.08.08.17.12.25,6.75,14.21,26.92,25.55,82.51,45.79,2.65.96,5.19,1.91,7.68,2.85ZM208.18,342.94c-8.96,52.34-16.24,98.3-21.22,131.53,23.58-21.14,44.4-58.53,47.19-85.23,2.45-23.46-9.33-36.86-25.98-46.3h0Z"/>
      </g>
    </g>
  </g>
</svg>