<?xml version="1.0" encoding="UTF-8" standalone="no"?>
<svg
   viewBox="0 0 691.06 345.96"
   version="1.1"
   id="svg28"
   sodipodi:docname="nsa_logo.svg"
   inkscape:version="1.4 (e7c3feb1, 2024-10-09)"
   inkscape:export-filename="nsa_logo_33.svg"
   inkscape:export-xdpi="27.748873"
   inkscape:export-ydpi="27.748873"
   xmlns:inkscape="http://www.inkscape.org/namespaces/inkscape"
   xmlns:sodipodi="http://sodipodi.sourceforge.net/DTD/sodipodi-0.dtd"
   xmlns="http://www.w3.org/2000/svg"
   xmlns:svg="http://www.w3.org/2000/svg">
  <defs
     id="defs28" />
  <sodipodi:namedview
     id="namedview28"
     pagecolor="#ffffff"
     bordercolor="#000000"
     borderopacity="0.25"
     inkscape:showpageshadow="2"
     inkscape:pageopacity="0.0"
     inkscape:pagecheckerboard="0"
     inkscape:deskcolor="#d1d1d1"
     inkscape:zoom="0.53440045"
     inkscape:cx="431.32448"
     inkscape:cy="195.54624"
     inkscape:window-width="1456"
     inkscape:window-height="684"
     inkscape:window-x="60"
     inkscape:window-y="38"
     inkscape:window-maximized="0"
     inkscape:current-layer="svg28"
     inkscape:export-bgcolor="#ffffff00" />
  <title
     id="title1">Narodni sportovni agentura_logo rgb</title>
  <g
     id="Vrstva_2"
     data-name="Vrstva 2"
     style="fill:#f8f9fa;fill-opacity:1"
     inkscape:export-filename="Vrstva_2.svg"
     inkscape:export-xdpi="27.748873"
     inkscape:export-ydpi="27.748873">
    <rect
       width="691.06"
       height="345.96"
       fill="#fff"
       id="rect1"
       style="fill:#f8f9fa;fill-opacity:1" />
  </g>
  <g
     id="Vrstva_1"
     data-name="Vrstva 1"
     transform="matrix(1.1697803,0,0,1.1697803,-60.266787,-29.368601)">
    <path
       d="m 230.3,393.08 c -11.13,0 -30.84,-7.21 -47,-21 -14.27,-12.18 -31.28,-34 -31.28,-68.66 V 201.55 h 156.54 v 101.9 c 0,34.69 -17,56.48 -31.28,68.66 -16.14,13.76 -35.85,21 -47,21"
       transform="translate(-75.15,-124.66)"
       fill="#e32a2d"
       id="path1" />
    <path
       d="m 209.55,337.78 c 0,0.45 0.51,1.13 0.51,1.84 a 2.64,2.64 0 0 1 -2.36,2.24 c -1.56,0 -1,-0.7 -2.46,-0.7 -0.72,0 -1.15,0.42 -1.46,0.42 -0.31,0 -0.55,0 -0.55,-0.25 0,-0.7 1.78,-1.22 2.85,-1.22 1.07,0 0.37,0.66 1.81,0.66 0.28,0 0.94,0.09 0.94,-0.76 0,-0.85 -0.43,-1.49 -0.43,-2.07 a 1.17,1.17 0 0 1 0.9,-1.26 c 0.33,0 0.57,0.11 0.57,0.26 0,0.15 -0.32,0.39 -0.32,0.84 m -6.62,3.53 c 0,1.31 -0.46,1.27 -0.62,1.27 a 0.26,0.26 0 0 1 -0.27,-0.29 c 0,-1.85 0.44,-1.72 0.59,-1.72 0.15,0 0.3,0 0.3,0.74 m -1.2,0.06 c 0,0.18 -0.18,1.57 -0.92,1.57 -0.31,0 -0.27,-0.24 -0.27,-0.53 0,-1.19 0.41,-1.25 0.83,-1.25 0.22,0 0.36,0.08 0.36,0.21 m -1.41,0.65 c 0,0.13 -0.09,1 -0.54,1 -0.45,0 -0.43,-0.35 -0.43,-0.57 0,-0.44 0.58,-0.64 0.72,-0.64 a 0.22,0.22 0 0 1 0.25,0.22 m -1.23,0.62 c 0,0.25 -0.78,0.8 -1,0.8 -0.22,0 -0.31,0 -0.31,-0.21 0,-0.61 0.8,-0.78 0.91,-0.78 0.11,0 0.37,-0.06 0.37,0.19 m 34.76,-29.23 a 55.25,55.25 0 0 0 -8.51,-0.87 72.58,72.58 0 0 0 -13,1.35 4.65,4.65 0 0 1 -0.66,0.05 c -2,0 -4.67,-1.54 -5.2,-3.4 a 2.37,2.37 0 0 1 0.26,-1.94 c -0.83,0 -2.93,0.2 -1.1,4.42 -1.08,1.14 -2.06,-3.07 -1.78,-3.66 -2.48,1.43 -2,5.36 -2,5.36 l -1.21,-0.2 a 11.79,11.79 0 0 0 -1.87,-0.15 12.11,12.11 0 0 0 -6.39,1.86 25.71,25.71 0 0 1 6.08,0.4 14.24,14.24 0 0 0 3.56,0.36 c 0.18,0 0.36,0 0.38,0.22 0.02,0.22 -0.11,0.29 -0.29,0.31 a 5.34,5.34 0 0 1 -0.81,0.05 20.46,20.46 0 0 1 -2.95,-0.24 23.18,23.18 0 0 0 -3.85,-0.41 c -1.64,0 -3.24,0.1 -3.94,0.7 a 14.39,14.39 0 0 0 -2.48,2.62 20,20 0 0 1 4.93,-0.65 c 3.73,0 7.29,0.91 10,0.91 2.71,0 8.64,-0.76 8.64,-0.63 0,1.24 -6.15,1.34 -7.37,3.24 a 20.3,20.3 0 0 0 -3,8.32 6.26,6.26 0 0 1 -1.68,4.1 c -1.63,1.63 -4.93,2.12 -7.4,2.12 a 19.46,19.46 0 0 1 -4.27,-0.49 l -0.78,-0.19 v -0.81 c 0,-2.73 -1.52,-0.95 -1.44,-1.85 a 1.13,1.13 0 0 0 0.84,-1.67 3.88,3.88 0 0 0 -2.64,-2.45 3.12,3.12 0 0 1 -0.89,2.8 2.54,2.54 0 0 1 -1.62,0.6 2.41,2.41 0 0 1 -1.19,-0.32 2.79,2.79 0 0 1 -1.24,-1.76 c -0.57,0.66 -1.39,1.59 -0.92,2.31 0.24,0.37 3.68,3 4.29,0.82 0.06,-0.22 0.51,0 0.51,0.27 0,0.27 -0.38,0.82 -0.3,0.86 0.65,0.29 2.81,0.59 2.87,0.94 0.06,0.35 -0.18,0.51 -0.48,0.5 -4.51,-0.29 -5.82,-0.93 -6.23,-1.28 0,0.56 -0.44,1.14 -0.57,0.82 a 4.65,4.65 0 0 0 -1.4,-2.19 2.8,2.8 0 0 0 -3.73,0.21 2.81,2.81 0 0 1 2.29,2.21 2.55,2.55 0 0 1 -1.4,2.59 2.69,2.69 0 0 1 -1.24,0.29 3.58,3.58 0 0 1 -1.63,-0.43 c 0.12,4.1 2.82,4.59 3.68,4.59 1.85,0 2.63,-2.75 3,-2.75 0.78,0 0,1.31 0.36,1.31 a 13.18,13.18 0 0 0 3.68,-0.6 c 0.75,-0.21 1.32,-0.49 2,-0.67 1.72,-0.45 3.12,-0.56 3.12,-0.11 0,0.45 -1.36,0.76 -2.83,1.23 -1.47,0.47 -3.3,1.05 -4.08,1.25 0.64,0.54 0.56,0.93 0.22,0.93 -0.34,0 -1,-0.73 -2.05,-0.73 -2.22,0 -2.94,3 -2.9,3.69 a 3.18,3.18 0 0 1 3.34,-1 2.6,2.6 0 0 1 1.71,2.57 3,3 0 0 1 -2,2.5 4.87,4.87 0 0 0 2.35,0.81 c 1.08,0 1.78,-0.72 2.67,-1.63 a 2.38,2.38 0 0 0 0.44,-2.31 c -0.08,-0.36 0.43,-0.6 0.53,-0.58 0.51,0.1 0.4,1.64 0.52,1.55 a 4.18,4.18 0 0 1 2.45,-0.82 c 0.39,0 0.88,0.07 1.43,-1 0.19,-0.37 0.64,0 0.5,0.44 a 3.2,3.2 0 0 0 1,4 2.54,2.54 0 0 1 1,-1.37 2.38,2.38 0 0 1 2.86,0 2.63,2.63 0 0 1 0.77,2.75 c 1.54,-0.19 2.57,-3.21 1.51,-4.72 -0.09,-0.14 0.4,-0.56 0.59,-0.56 0.19,0 0.7,1 1,1 a 3.47,3.47 0 0 0 0.87,-0.09 2.8,2.8 0 0 1 -0.22,-0.84 c 0,-0.16 0.68,-0.37 0.79,-0.32 0.11,0.05 1.53,4.28 5.14,5.76 a 27.51,27.51 0 0 1 -2.76,-7 c 0,-0.12 0.25,-0.34 0.39,-0.31 0.14,0.03 3.16,5.19 6,5.19 h 0.28 c -2.45,-1.81 -3.89,-6.67 -3.88,-6.82 0.01,-0.15 0.39,-0.21 0.53,-0.12 1.12,0.7 1.15,3 2.67,3 h 1.29 a 7.55,7.55 0 0 1 -1.81,-2.29 c 0,-0.11 0.21,-0.31 0.43,-0.31 0.62,0 1.73,2.71 5.09,2.71 a 1.84,1.84 0 0 0 0.9,-0.16 16.22,16.22 0 0 1 -2.56,-3.41 0.32,0.32 0 0 1 0.28,-0.24 c 0.83,0 2.68,3.09 4.14,3.09 a 8.23,8.23 0 0 0 2.28,-0.36 c -3.77,-2.86 -2.38,-7.44 -1.57,-10.83 a 22.24,22.24 0 0 0 0.8,-4.06 v -0.94 l 0.94,-0.05 c 1.64,-0.09 10.62,-0.87 16.84,-3 0,0 0.18,-0.7 0.58,-2 -1.79,1 -5.36,2.74 -11.77,2.74 a 0.38,0.38 0 0 1 0,-0.76 c 6.82,0 11.14,-2.57 12.16,-3.4 0.24,-0.8 0.71,-2.26 0.71,-2.26 0,0 -5.17,-1.22 -2.58,-8.63 m -29.33,-51.15 a 0.53,0.53 0 0 1 -0.51,0.56 c -0.41,0 -0.48,-0.23 -0.78,-0.23 a 8.11,8.11 0 0 1 -1.43,0.3 c -2,0 -2.26,-2 -2.26,-2.66 0,-0.66 0.19,-1 0.19,-1.63 0,-0.63 -0.32,-0.84 -0.32,-1.06 0,-0.22 0.35,-0.45 0.49,-0.45 0.82,0 0.88,0.82 0.88,1.46 0,0.64 -0.15,0.92 -0.15,1.38 0,1.12 0.67,2 1.44,2 0.77,0 0.64,-0.38 1.34,-0.38 a 1.14,1.14 0 0 1 1.11,0.68 m -4.85,-6.46 c 0,0.19 -0.44,0.27 -0.44,0.63 0,0.15 0.06,0.15 0.06,0.28 a 0.36,0.36 0 0 1 -0.39,0.34 c -0.49,0 -0.51,-0.32 -0.51,-0.55 0,-0.93 0.64,-1 0.9,-1 0.26,0 0.38,0.13 0.38,0.33 m -1.2,-1.27 c 0,0.35 -0.2,0.25 -0.2,0.74 a 0.48,0.48 0 0 1 -0.46,0.47 c -0.32,0 -0.41,-0.43 -0.41,-0.76 0,-0.49 0.27,-0.69 0.53,-0.69 0.26,0 0.54,0.06 0.54,0.24 m -1.35,-0.86 c 0,0.55 -0.7,0.62 -0.78,0.62 -0.08,0 -0.23,-0.11 -0.23,-0.35 0,-0.45 0.12,-0.6 0.51,-0.6 0.21,0 0.5,0 0.5,0.33 m -0.89,-1.27 c 0,0.1 -0.34,0.51 -0.57,0.51 -0.23,0 -0.33,-0.06 -0.33,-0.2 0,-0.14 0.39,-0.47 0.6,-0.47 0.21,0 0.3,0.06 0.3,0.16 m 11.58,2.4 c -1.85,-2.3 -4.26,-4.75 -6,-6.55 -1,-1.07 -1.87,-1.91 -2.32,-2.44 a 0.34,0.34 0 0 1 0.05,-0.48 0.33,0.33 0 0 1 0.48,0 c 0.43,0.51 1.25,1.34 2.29,2.4 1.68,1.71 3.94,4 5.76,6.22 a 7.21,7.21 0 0 1 0.55,-1.25 l -0.18,-0.24 a 51.21,51.21 0 0 0 -7.74,-8.44 95.43,95.43 0 0 1 -9.29,-9.61 c -2.79,-3.29 -2.69,-5.11 -2.27,-6.69 0.26,-0.94 -0.87,-0.44 -0.87,-1.11 0.34,0 1.43,-0.14 1.68,-0.64 0.6,-1.22 0.94,-2 -0.27,-4.14 a 2.57,2.57 0 0 1 -1.83,0.8 2.31,2.31 0 0 1 -2.34,-1.72 2.56,2.56 0 0 1 0.58,-2.41 3.67,3.67 0 0 0 -1.44,-0.29 c -3,0 -1.89,2.67 -1.27,4.88 0.34,0.13 1,0.13 1.2,0.7 0,0.1 -0.52,0.39 -0.64,0.47 0.21,0.43 0.68,1.05 1.25,2 0.73,1.26 1.58,2.5 0.92,2.5 -0.82,0 -1.26,-0.84 -2.46,-2.53 A 12.84,12.84 0 0 1 181.3,221 c -0.13,0.22 -0.57,1 -1.21,0.53 2.83,-3.79 -0.74,-6 -2.12,-5.89 a 2.58,2.58 0 0 1 -0.17,1.92 2.63,2.63 0 0 1 -2.48,1.5 c -0.53,0 -1.75,-0.41 -2.48,-2.18 -2.19,1.33 -2,4.62 -2,5.92 a 5.72,5.72 0 0 1 4.29,1.46 c 0,0 0.64,-0.51 0.83,-0.51 a 1,1 0 0 1 0.58,0.31 c 0,0.08 -0.84,0.94 -0.78,1 a 37.42,37.42 0 0 0 8.39,6.79 c -0.52,1.5 -6.93,-3.32 -8.33,-4.74 0,0.71 -0.28,0.83 -0.5,0.83 -0.73,-3.7 -3.9,-4.36 -5.11,-3.85 a 6.16,6.16 0 0 0 -1.69,1 2.83,2.83 0 0 1 2,1.82 2.73,2.73 0 0 1 -0.65,2.89 2.56,2.56 0 0 1 -1.78,0.64 4.6,4.6 0 0 1 -1.22,-0.2 4.29,4.29 0 0 0 1.37,3.41 5,5 0 0 0 3.24,0.93 c 0.93,0 2,0.06 2.27,-1.64 1.69,-0.5 0.64,1.49 0.64,1.49 a 21.61,21.61 0 0 0 2.35,2.15 c 1,0.73 2.77,0.28 1.92,1.37 -0.47,0 -1.41,-0.13 -1.89,0.26 -2,1.59 -1.93,2.91 -1.76,3.69 a 2.89,2.89 0 0 1 1.92,-0.19 2.43,2.43 0 0 1 1.86,1.88 3,3 0 0 1 -1.39,2.84 2.69,2.69 0 0 0 1.27,0.37 c 0.85,0 1.61,-0.5 2.61,-1.68 a 1.86,1.86 0 0 0 0.28,-1.7 c 0.86,-0.78 1.33,1.31 1.74,1.68 1.41,1.26 2.42,3.27 2.29,4.55 a 2.23,2.23 0 0 1 -0.95,1.69 2.29,2.29 0 0 1 -1.28,0.42 2.22,2.22 0 0 1 -1.11,-0.32 5.07,5.07 0 0 0 7,1.8 c 0.23,-0.12 0.38,0.23 0.32,0.32 -0.44,0.69 -3.37,1.25 -4.38,2.4 a 7.39,7.39 0 0 0 -1.48,3.46 5.78,5.78 0 0 1 2.84,-1 c 2.27,0 3.56,-1.79 5.39,-1.79 1,0 -3.15,2.4 -4.42,2.94 1.68,1.68 6.39,0.23 6.51,0.23 0.12,0 0.27,0 0.27,0.26 a 8.93,8.93 0 0 1 -4.76,1.51 c 0.87,0.76 1.59,1.45 2.36,1.45 4.29,0 4.84,-0.62 4.84,0 0,0.62 -2.71,-0.35 -3.5,2 a 10.33,10.33 0 0 0 -0.73,3.8 c 1.43,-1 2.47,-1.1 4.41,-1.54 1.94,-0.44 3.47,-1.07 3.88,-1.07 0.41,0 0.57,0.31 0.44,0.37 -5.06,2.36 -4.62,6 -4.06,8.69 5.83,-3.73 3.92,-6.81 12.15,-14.72 -1.09,-0.55 -2.15,-3 -1.57,-5.72 m 11.12,-20.45 a 11.61,11.61 0 0 1 -2,0.77 13.66,13.66 0 0 0 1.51,2 l 0.21,0.19 a 28,28 0 0 1 0.3,-3 m 8.07,-7.57 a 1.83,1.83 0 0 1 -1.85,1 1.18,1.18 0 0 1 -1.31,-1.36 c 0,-0.36 0.21,-1 0.68,-1 a 0.7,0.7 0 0 1 0.72,0.68 c 0,0.22 -0.17,0.41 -0.17,0.63 0,0.22 0.17,0.23 0.37,0.23 a 4.07,4.07 0 0 0 1.39,-0.47 c 0.15,0 0.17,0.2 0.17,0.3 m 0.44,-0.66 a 10.26,10.26 0 0 1 -3.26,-1.38 8.44,8.44 0 0 1 -1.33,1.34 1.5,1.5 0 0 0 0.46,1.62 2.9,2.9 0 0 0 3,0.55 2.19,2.19 0 0 0 1.15,-2.13 m 19.08,-0.71 c 0,0.23 -0.06,0.57 -0.35,0.57 -0.59,0 -0.22,-1.29 -0.68,-1.29 -0.3,0 -1.12,0.37 -1.12,2.4 0,1.64 0.45,2 0.86,2 0.41,0 0.27,-0.78 0.78,-0.78 a 0.28,0.28 0 0 1 0.28,0.27 1.87,1.87 0 0 1 -1.84,2 1.67,1.67 0 0 1 -1.3,-1.55 c 0,-0.75 0.26,-1.39 0.26,-2 0,-0.61 -0.14,-1.05 -0.14,-1.59 0,-1.61 2,-2.25 2.56,-2.25 0.56,0 0.69,2 0.69,2.22 m -13.93,0.24 a 0.43,0.43 0 0 1 -0.37,0.49 15.81,15.81 0 0 1 -3.93,0.12 2.93,2.93 0 0 1 -1.64,2.77 3.28,3.28 0 0 1 -1.36,0.28 3.83,3.83 0 0 1 -2.57,-1 2.42,2.42 0 0 1 -0.8,-1.57 11,11 0 0 1 -1,0.59 0.43,0.43 0 0 1 -0.19,0 0.44,0.44 0 0 1 -0.39,-0.24 0.43,0.43 0 0 1 0.19,-0.57 9.61,9.61 0 0 0 3.16,-2.65 l 0.23,-0.34 0.35,0.21 c 2.35,1.47 4,2 7.82,1.48 a 0.43,0.43 0 0 1 0.48,0.37 m -15.26,6.62 c 0,0.24 -0.12,0.56 -0.38,0.56 -0.26,0 -0.79,0 -0.79,-0.25 0,-0.25 0,-0.65 0.41,-0.65 0.23,0 0.76,0.1 0.76,0.34 M 215.79,231 c 0,0.19 -0.08,0.62 -0.48,0.62 -0.4,0 -0.42,-0.11 -0.42,-0.24 0,-0.13 0.06,-0.75 0.42,-0.75 0.36,0 0.48,0.17 0.48,0.37 m -1.37,1.25 c 0.24,0 0.74,0 0.74,0.33 0,0.33 -0.49,0.65 -0.89,0.65 -0.4,0 -0.4,-0.12 -0.4,-0.28 0,-0.16 0.09,-0.7 0.55,-0.7 m 33.42,-7.82 -0.12,-0.53 c -0.21,-0.93 -0.48,-2.06 -1,-2 -3.79,0.28 -5.77,3.46 -6,3.46 -0.39,0 -0.71,-0.52 -1.18,-1.1 -0.32,-0.39 -0.46,-0.47 -0.46,-1 0,-0.76 0.92,0.37 1.33,0.93 a 7.86,7.86 0 0 1 1.57,-1.81 c -2.51,0 -19.07,-0.06 -19.26,-0.06 a 5.08,5.08 0 0 0 -1.31,0.28 c -1.81,0.63 -2.08,1.07 -2.52,1.8 a 9,9 0 0 1 -0.78,1.12 l -0.17,0.19 -0.24,0.09 a 26.35,26.35 0 0 0 -5,2.81 l -0.11,0.08 a 4.12,4.12 0 0 0 -1.05,0.91 c 0,0 0,0.24 0.6,0.86 a 2,2 0 0 0 0.93,-0.44 c 0.41,-0.32 1.43,-0.13 1,0.24 a 8.28,8.28 0 0 0 -1.5,1.37 3.11,3.11 0 0 0 0.74,2.13 2.67,2.67 0 0 0 1.94,0.53 8.27,8.27 0 0 0 3.45,-0.94 5.2,5.2 0 0 1 4.84,-0.13 c 0.87,0.51 1.91,1.64 2,4.07 0.59,1.19 1.11,2.79 0.34,3.9 a 3.08,3.08 0 0 1 -2.71,1.06 h -1 c -1.15,0 -2.75,-0.33 -3.69,0.56 a 10.81,10.81 0 0 0 -1.62,2.74 17.14,17.14 0 0 1 -1.09,2.25 c 2.39,-0.43 3.75,-2.61 4.17,-2.61 0.42,0 -0.5,1.34 -0.51,2 v 0 a 2.09,2.09 0 0 1 1.11,-0.31 c 0.47,0 1.71,-2 2,-2 0.29,0 0.29,0.14 0.29,0.29 0,0.84 -1.58,1.76 -1.58,2.71 0,0.26 2.35,-1.32 2.6,-1.42 0,-0.29 0.47,-1.39 0.94,-1.39 0.15,0 0.31,0.82 0.31,1.35 0,0.53 -0.41,0.74 -0.41,1.11 0,0.37 1.44,2.46 1.44,2.15 0,-3.34 1.25,-2.87 1.25,-4.88 0,-1.42 0.37,-1.33 0.55,-1.33 0.18,0 0.39,0.08 0.39,1 a 5.65,5.65 0 0 1 -0.35,2 c 3.06,0 1.67,-3.92 0.6,-4.9 -0.21,-0.2 0.43,-0.35 0.53,-0.35 1.33,0 3.14,4.37 5,4.37 a 4,4 0 0 1 -0.93,-2.4 c -0.18,-1.61 0.17,-3 -1.39,-4.23 a 3.25,3.25 0 0 0 -2.3,-1 0.41,0.41 0 0 1 -0.39,-0.33 c 0,-0.2 0.11,-0.36 1,-0.36 0.89,0 2,0.29 3.36,2 a 3.44,3.44 0 0 0 -0.65,-2.09 11.29,11.29 0 0 0 -4.33,-2.5 c 0,0 -0.08,-0.37 1.54,-0.37 1.1,0 2,1.13 3.13,1.13 0.91,0 1.75,-0.76 1.75,-1.09 a 9.21,9.21 0 0 1 -2.2,-0.45 c -0.83,-0.26 -1.45,-1.19 -2.19,-1.42 -1.7,-0.54 -3.16,-0.79 -3.16,-1.15 0,-0.14 0.29,-0.41 0.59,-0.41 0.3,0 0.39,0.35 1.17,0.35 0.6,0 0.54,-0.18 0.95,-0.18 1.1,0 3.87,2.32 4.49,2.32 0.62,0 0.31,-0.91 0.86,-0.91 0.55,0 0.55,0.82 0.55,1.05 a 1.86,1.86 0 0 1 -0.73,1.56 1.77,1.77 0 0 1 -1.71,1.09 c 0.41,0.43 1.81,2.42 0.54,4.12 0,0.86 -0.13,4.45 2.26,5.21 0.44,0.63 -3.31,2.64 -5.61,-1.07 -0.26,1.33 -0.94,3.08 -3.18,3 -1,2.48 0.15,2.23 0.15,3.22 a 0.78,0.78 0 0 1 -0.76,0.77 c -0.35,0 -3.2,-1.55 -3.2,-3.22 a 16.55,16.55 0 0 0 -4,3.29 10.83,10.83 0 0 1 -3.24,2.63 c -1.73,0.8 -3.29,0.76 -4.09,-0.11 a 2.5,2.5 0 0 1 -0.41,-2.43 c -4.22,2.43 -3.8,8.14 0.07,8.14 2.2,0 6,-2.59 6,-2.1 0,0.49 -3.07,3.12 -4.78,3.12 -5.76,0 -9.56,11.18 -12.78,13.88 5.41,0 11.41,-7.63 13,-7.63 0.15,0 0.27,0.74 -0.19,1.07 -2.88,2.05 -5.22,5.56 -8.08,6.56 10.81,1.64 12.32,-7.87 14.42,-7.87 0.73,0.73 -2,3.34 -2.83,6.48 -1,3.86 0.2,4.69 -2,10 0.64,0 3.22,-1.45 4.83,-3.76 2.13,-3.06 2.44,-5.93 3.83,-7.32 0.22,-0.22 0.49,0.28 0.49,0.59 0,0.31 -2.22,6.58 -3.34,7.71 2.1,0 7.95,-4 8.43,-9.92 -1.65,-0.46 -3.2,-2.09 -4.71,-4.53 -2.8,-4.5 -3.77,-4.1 -3.36,-4.66 0.41,-0.56 2.34,1.45 3.36,2.67 1.02,1.22 2.15,3.26 3.58,4.46 a 6.34,6.34 0 0 0 8,-0.17 c -3,0 -4.13,-3.66 -4.68,-6.16 -0.78,-3.55 -2.78,-4.88 -3.42,-6.44 -0.75,-1.82 -0.95,-2.73 -0.45,-2.73 0.35,0 0.28,0.79 1,1.91 1.23,1.79 2.17,2 4.16,7.16 0.67,-1.11 2.91,-4.25 2.91,-6.56 0,-5.34 -3.45,-7.72 -2.91,-8.31 0.54,-0.59 4.51,3.18 4.12,8.63 3.77,-4.8 2.75,-8.86 1.6,-9.57 -1.15,-0.71 -1.65,-3.2 -1.4,-3.31 0.7,-0.34 0.57,1.81 3.25,3.37 a 5.61,5.61 0 0 0 5.53,0.17 c -3.74,0 -4.39,-4.63 -5.27,-6.71 -0.88,-2.08 -2.32,-3.45 -2.25,-3.68 0.26,-0.83 2.76,1.07 4.35,6.51 1.46,-2.73 0.75,-7.24 -0.42,-9.07 -1,-1.61 -2,-2.58 -1.39,-3.2 0.34,-0.36 1.85,3 4.76,1.39 2.56,-1.44 3,-4.41 2.38,-7.23 M 219.44,241 c 0.73,0 1.38,0 2,0.08 a 8.57,8.57 0 0 1 -2,-2.35 c 0,0.7 0,1.43 0,2.27 m 31.36,4.65 a 6,6 0 0 0 -1.07,-5.21 c -1,-1.52 -4.68,-3.16 -4,-3.72 1.18,-1 3.76,3.05 5.57,1.66 a 5.48,5.48 0 0 0 1.8,-4.37 4.13,4.13 0 0 1 -0.65,0.36 4.18,4.18 0 0 1 -1.71,0.34 11.19,11.19 0 0 1 -4,-1.13 11,11 0 0 0 -3.3,-0.37 14.27,14.27 0 0 1 -0.34,10.41 3.45,3.45 0 0 0 4.2,1.71 c 0.1,0 -0.1,0.83 -0.86,1.6 a 9.51,9.51 0 0 1 4.31,5 c 1.46,-6.13 -5.89,-10.29 -5.43,-11.08 0.61,-1 4.76,3.27 5.54,4.81 M 246.92,282 c -1.74,-1.41 -2.95,-4.07 -3.49,-6.85 -1.31,-6.79 -2.46,-8.92 -3.22,-10.4 -0.76,-1.48 -2.32,-4.17 -2.14,-4.78 0.18,-0.61 1.93,1.58 3.7,5 a 28.71,28.71 0 0 1 2.83,8.68 c 1.81,-2.14 2.3,-5 2.3,-7.76 0,-4.46 -0.91,-6.32 -1.75,-7.48 a 30.22,30.22 0 0 0 -3,-3.77 c -0.79,-0.7 -1.89,-2.06 -1.62,-2.41 0.27,-0.35 2.56,1.53 4.13,3.1 1.33,1.32 4,7.05 9.64,7.05 -1.49,-0.72 -2.42,-3.85 -3.92,-8.05 a 17.82,17.82 0 0 0 -1.4,-3.57 8.11,8.11 0 0 0 -3.54,-3.13 c -1.11,0.57 -2.82,0.76 -5.36,-0.26 a 5.29,5.29 0 0 1 0.17,2.9 18.38,18.38 0 0 1 -4,7.71 c -1.45,1.8 -0.91,3.32 -3.35,5.86 1.34,4.06 4.27,3.43 4.65,3.51 0.15,0 -1.22,4.21 -6.88,3.39 h -0.06 c -2.35,9.61 3.08,14 3.71,14.77 0,-4.3 2.91,-7.71 2.91,-15.32 0,-0.37 0.79,-0.25 0.8,0 0,1.79 -0.08,2.31 -0.08,3.62 0,6.67 8.42,8.16 9,8.16 m 3.69,24.91 c 0,0.49 -0.42,1 -0.6,1 -0.18,0 -0.29,-0.09 -0.29,-0.22 0,-0.13 -0.13,-0.23 -0.13,-0.39 0,-0.34 0.36,-0.32 0.36,-0.46 a 0.48,0.48 0 0 1 0.32,-0.35 c 0.11,0 0.34,-0.07 0.34,0.42 m -0.88,-0.57 c -0.45,0 -0.53,-0.27 -0.53,-0.41 0,-0.14 0.11,-0.12 0.15,-0.18 0.04,-0.06 0,-0.21 0.08,-0.29 a 0.6,0.6 0 0 1 0.37,-0.19 0.18,0.18 0 0 1 0.17,0.19 c 0,0.08 0.13,0.28 0.13,0.39 0,0.11 0.08,0.49 -0.37,0.49 m -0.08,-2 c 0,0.22 -0.12,0.6 -0.45,0.6 -0.33,0 -0.4,-0.44 -0.4,-0.6 a 0.47,0.47 0 0 1 0.4,-0.37 0.44,0.44 0 0 1 0.45,0.37 m -0.28,-1.14 c 0,0.35 -0.39,0.52 -0.57,0.52 -0.18,0 -0.31,-0.26 -0.31,-0.44 0,-0.18 0.31,-0.35 0.49,-0.35 0.18,0 0.39,0.05 0.39,0.27 m 0.11,8.45 c 1.11,0 2.49,6.93 2.49,12.2 0,5.27 -0.17,6.39 -0.63,6.39 -0.46,0 -0.13,-4.54 -0.61,-9.78 -0.74,-8 -2.17,-8.81 -1.25,-8.81 m 0.78,46.72 c 0,-0.35 0.26,-1.09 0.44,-1.09 0.56,0 0.44,1.09 0.44,1.23 a 0.5,0.5 0 0 1 -0.47,0.43 c -0.29,0 -0.41,-0.36 -0.41,-0.57 m 0.39,-2 c 0,-0.1 0.12,-0.57 0.5,-0.57 0.38,0 0.71,1 0.71,1.25 a 0.42,0.42 0 0 1 -0.41,0.41 2.19,2.19 0 0 1 -0.8,-1.09 m 0.82,-0.8 a 6.2,6.2 0 0 1 -0.43,-0.82 0.52,0.52 0 0 1 0.51,-0.39 c 0.51,0 0.88,1.44 0.88,1.62 0,0.18 -0.14,0.51 -0.37,0.51 -0.23,0 -0.35,-0.48 -0.59,-0.92 m 0.67,-1.21 c -0.26,-0.28 -0.57,-0.47 -0.57,-0.57 0,-0.1 0.29,-0.6 0.49,-0.6 0.2,0 1.21,0.82 1.21,1.37 0,0.29 -0.37,0.5 -0.53,0.5 -0.16,0 -0.32,-0.39 -0.6,-0.7 m 0.6,-1.25 c -0.49,0 -0.19,-2.23 1.49,-2.23 0.83,0 1.29,0.39 1.29,-1.17 a 1.6,1.6 0 0 0 -1.62,-1.43 c -2,0 -2.21,-1.38 -2.21,-1.52 0,-0.14 0.17,-0.75 0.73,-0.75 0.56,0 -0.17,1.19 1.55,1.19 a 2.32,2.32 0 0 1 2.6,2.59 2.36,2.36 0 0 1 -2.23,2.27 c -0.88,0 -0.8,1.05 -1.6,1.05 m -13.35,-50.49 a 0.49,0.49 0 0 1 -0.49,0.51 c -0.38,0 -0.4,-0.21 -0.4,-0.41 a 0.41,0.41 0 0 1 0.44,-0.37 c 0.3,0 0.45,0.1 0.45,0.27 m -0.58,-1.22 a 0.9,0.9 0 0 1 -0.72,0.83 c -0.32,0 -0.38,-0.44 -0.38,-0.62 0,-0.18 0.55,-0.64 0.73,-0.64 0.18,0 0.37,0 0.37,0.43 m -1.1,-1 a 0.63,0.63 0 0 1 -0.56,0.61 c -0.2,0 -0.24,-0.39 -0.24,-0.61 0,-0.22 0.33,-0.39 0.49,-0.39 0.16,0 0.31,0 0.31,0.39 M 237,299.51 a 0.51,0.51 0 0 1 -0.52,0.47 c -0.28,0 -0.37,-0.27 -0.37,-0.47 0,-0.2 0.07,-0.36 0.44,-0.36 0.37,0 0.45,0.11 0.45,0.36 M 210.78,280.6 c 0,0.61 0.13,1.15 0.13,2.21 0,1.06 -1,1.43 -2.42,1.43 -1.42,0 -1.15,-0.27 -1.79,-0.27 -0.64,0 -0.3,0.24 -1.14,0.24 -0.66,0 -0.09,0.31 -1.32,0.31 -0.34,0 -0.57,-0.11 -0.57,-0.31 0,-0.2 0.35,-0.24 0.66,-0.24 0.8,0 0.59,-0.95 2.54,-0.95 1.11,0 1,0.51 1.86,0.51 a 1.2,1.2 0 0 0 1.13,-1.29 c 0,-0.51 -0.18,-0.9 -0.18,-1.79 0,-0.89 0.55,-0.92 0.74,-0.92 0.19,0 0.49,0 0.49,0.21 0,0.21 -0.13,0.55 -0.13,0.86 m -7.66,3.83 c 0,0.15 -0.05,0.64 -0.72,0.64 -0.93,0 -0.86,-0.51 -0.86,-0.64 0,-0.13 0.39,-0.46 0.46,-0.46 a 0.18,0.18 0 0 1 0.15,0.16 c 0,0.08 0.08,0.14 0.31,0.14 0.23,0 0.66,0 0.66,0.16 m -1.73,0.6 a 0.75,0.75 0 0 1 0.54,0.35 0.45,0.45 0 0 1 -0.46,0.47 c -0.69,0 -1.06,-0.25 -1.06,-0.47 0,-0.22 0.31,-0.68 0.55,-0.68 0.24,0 0.21,0.33 0.43,0.33 m -1,1.21 a 0.68,0.68 0 0 1 -0.6,0.49 0.57,0.57 0 0 1 -0.53,-0.59 0.62,0.62 0 0 1 0.57,-0.64 c 0.17,0 0.13,0.1 0.13,0.27 0,0.17 0,0.22 0.22,0.22 0.22,0 0.21,0.15 0.21,0.25 m -1.58,0.67 a 0.45,0.45 0 0 1 -0.49,0.44 c -0.33,0 -0.45,-0.19 -0.45,-0.37 0,-0.18 0.16,-0.74 0.59,-0.74 0.43,0 0.35,0.45 0.35,0.67 m 74.27,36.82 a 3.63,3.63 0 0 1 -2.44,1 2.85,2.85 0 0 1 -0.91,-0.15 c -1.45,-0.48 -4.3,-2.52 -7.58,-7.38 A 141,141 0 0 1 250.8,296.09 c -2.07,-4.65 -3.39,-8.63 -5.26,-11.67 a 6.14,6.14 0 0 0 -3.19,-2.26 c 3.3,4.94 6,11.29 5.63,11.68 -0.37,0.39 -3,-5.28 -5.79,-9.86 -1.74,-2.86 -4.27,-4.75 -4.65,-5.75 -1.13,4.77 -3.05,8.57 -0.34,10.15 -1.61,1.61 -8.59,-5.13 -8.59,-12.22 -3.17,4.92 -7.95,6 -9.42,5.92 -1.21,1.76 -6.09,3.71 -6.68,3.71 -1.17,0 -0.88,-1.41 -0.49,-1.41 1.93,0 3.44,-8.52 3.17,-10.74 0,0.54 -3.75,2.54 -7.31,2.54 a 11.48,11.48 0 0 1 -3.46,-0.45 l -3.87,2 c -3.19,1.68 -6.2,3.27 -7.17,3.91 a 0.33,0.33 0 0 1 -0.19,0.06 0.36,0.36 0 0 1 -0.29,-0.16 0.35,0.35 0 0 1 0.1,-0.48 c 1,-0.65 4,-2.25 7.23,-3.94 l 3.23,-1.71 a 2.21,2.21 0 0 0 -0.37,0 c -0.77,0 -0.88,0.81 -5.58,0.88 l -0.68,0.39 c -1.73,1 -3.53,2.12 -5.27,3.22 -5.05,3.18 -9.82,6.18 -13.3,6.18 a 5.91,5.91 0 0 1 -3.6,-0.88 c 0,0.23 -0.15,0.35 -0.44,0.35 -0.29,0 -0.24,-0.54 -0.25,-1 -0.16,-0.18 -0.3,-0.36 -0.44,-0.54 a 3,3 0 0 0 -2.08,-1.34 2.46,2.46 0 0 1 -0.42,1.76 2.29,2.29 0 0 1 -1.85,0.95 3.4,3.4 0 0 1 -2.73,-1.81 3.87,3.87 0 0 0 -2.15,2.59 c -0.3,1.37 0.32,1.84 1.52,1.84 1.2,0 2.59,0.75 3.41,0.75 0.82,0 0.86,-1 1.47,-1 0.42,0 0.13,0.68 0.29,0.68 0.32,0 2.9,-1.19 3.88,-1.19 0.24,0 0.29,0.05 0.29,0.29 0,0.56 -1.06,0.74 -2.28,1.36 a 7.81,7.81 0 0 1 -3.44,1.22 c -0.72,0 -0.4,-0.12 -0.91,-0.12 -0.3,0 0.07,0.83 -0.3,0.83 -0.87,0 -0.39,-1.51 -2.85,-1.51 a 3.51,3.51 0 0 0 -3.31,2 3.08,3.08 0 0 1 2.52,1 3.18,3.18 0 0 1 0.77,3.32 2.76,2.76 0 0 1 -2.64,1.6 c 0.19,1.55 1.7,1.91 3.11,2.16 l 0.44,0.08 a 5.89,5.89 0 0 1 2.21,-3.38 c 0,-0.25 -0.42,-0.15 -0.42,-0.59 a 0.73,0.73 0 0 1 0.55,-0.65 c 0.28,0 0.47,0.65 0.7,0.65 a 20.6,20.6 0 0 0 3.43,-2.23 c 1.92,-1.53 3.53,-3.44 4.08,-3.44 0.55,0 0.38,0.28 0.38,0.37 a 16.44,16.44 0 0 1 -2.61,3.12 15.65,15.65 0 0 1 -3,2.5 c 0.22,0 1.11,0.23 1.11,0.46 0,0.23 -0.23,0.22 -0.46,0.22 -0.23,0 -1.17,-0.22 -1.36,-0.22 -0.91,0 -3.41,1.88 -3.63,3.84 a 3.33,3.33 0 0 0 0.44,2 3,3 0 0 1 2.43,-1.58 2.61,2.61 0 0 1 2.5,1.49 3,3 0 0 1 -0.3,2.9 c 0,0 2.49,0.2 3.56,-0.61 1.61,-1.23 3.9,-4.13 1.27,-6.16 1.56,-2 1.41,0.61 2.42,0.57 a 9.2,9.2 0 0 0 3.26,-0.77 c 0,0 -0.31,-2 1.36,-2 a 3.29,3.29 0 0 0 -0.08,2.32 4.34,4.34 0 0 0 2.31,1.85 2.8,2.8 0 0 1 0.83,-2.63 2.12,2.12 0 0 1 2.46,-0.26 2.9,2.9 0 0 1 1.3,2.64 c 1.38,-0.73 1.57,-1.89 1.36,-3.39 a 2,2 0 0 0 -1.4,-1.57 c 0.27,-1.42 1.78,0.11 5.24,-0.77 a 4.52,4.52 0 0 1 0.93,-0.11 2.17,2.17 0 0 1 2.1,1.27 2.63,2.63 0 0 1 0.19,0.9 c 2.54,-2.64 1.45,-5.7 3.09,-6.09 0.88,2.65 -0.43,7.59 1.65,10.27 a 15.17,15.17 0 0 1 0.48,-3.8 c 1,-3 2.16,-5.46 1.38,-6.81 1.58,0.06 1.74,1.33 0.1,5.69 a 19.84,19.84 0 0 0 2.15,-1.76 c 0.93,-0.94 1.48,-3.81 1.24,-5.08 2.09,-0.52 0,4.14 0.64,5.41 a 7.26,7.26 0 0 0 2.11,2.77 c -0.66,-2.3 0.06,-3.77 0.46,-5.48 0.31,-1.28 0.91,-3.38 1.17,-4.87 1.73,-1.16 0,5 -0.12,5.17 a 18.54,18.54 0 0 0 4.26,-5.63 c -0.45,-1.06 0.12,-1.55 0.35,-1.67 0.74,3.86 3.79,6.5 3.49,6.85 -0.3,0.35 -1.19,-0.56 -2,-1.65 a 14.19,14.19 0 0 1 -1.47,-2.71 c -1,2 -2.66,4.53 -2.66,4.53 1.78,1.53 11.5,7.75 17.52,13.09 a 27.36,27.36 0 0 1 3.52,4 c 0.53,0.67 -0.1,1.42 -0.71,0.57 a 8.15,8.15 0 0 0 -6.31,-3.61 c 1.48,0.91 5.75,4.72 5.75,7.92 0,1.4 -0.83,1.36 -0.83,3.83 0,2.85 1.78,3.48 2.22,3.54 0.29,-1.6 2.22,-7.81 2.22,-10.33 0.19,-5.8 -0.29,-6.95 0.19,-6.95 0.93,0 1.18,3.83 1.18,6.32 0,5.41 -3.85,15.19 -4.59,19.27 -1.61,8.88 -3.07,13.76 -7.07,14.56 a 3.84,3.84 0 0 1 -0.76,0.08 4.87,4.87 0 0 1 -2.79,-1 4,4 0 0 0 1,2.18 5.34,5.34 0 0 0 3.77,1.31 4.68,4.68 0 0 0 3.58,-1.82 0.18439089,0.18439089 0 0 1 0.28,0.24 c -0.8,1.09 -1.32,1 -2.19,3 a 14.33,14.33 0 0 0 -1.29,7.41 51.93,51.93 0 0 1 3.94,-7.46 0.22,0.22 0 0 1 0.29,-0.1 0.23,0.23 0 0 1 0.05,0.31 c -0.89,1.48 -4.35,7.33 -3.91,9.12 a 12.74,12.74 0 0 0 1.42,3.25 6.13,6.13 0 0 0 0.4,0.57 c 0,-3.89 1.36,-5.84 3,-8.26 a 33.67,33.67 0 0 0 2.72,-4.76 c 1,-2 1.17,-5.78 1.68,-6.54 0.23,-0.34 0.8,-0.4 0.81,0 0.07,3.09 -2.17,5.22 1.17,8.74 1.15,1.2 2.59,2.62 2.59,4.7 0,2.81 -7.11,12.5 -9.86,12.5 -0.19,0 -0.45,0 -0.88,-0.09 -0.13,0 0.84,0.87 -0.21,0.79 -0.32,-0.16 -0.9,-1 -1.87,-1 a 3.22,3.22 0 0 0 -2.67,0.91 2.13,2.13 0 0 1 1.13,1.53 3.18,3.18 0 0 1 -1.39,3 2.69,2.69 0 0 1 -1.11,0.45 c -0.2,0.91 0,3.69 4.13,0.35 0.26,-0.21 0.18,-1 0.51,-1.35 0.33,-0.35 0.41,0.14 0.68,0.1 0.27,-0.04 2.33,-2.91 2.64,-3.24 0.31,-0.33 0.71,0 0.58,0.46 a 18.39,18.39 0 0 1 -3.59,5.22 c -0.13,0.13 1.05,0 0.53,0.82 -0.11,0.17 -1.21,-0.39 -1.21,-0.39 -4.59,1.76 -5.14,4.33 -4.24,5.6 a 3.16,3.16 0 0 1 2.87,-1.07 2.67,2.67 0 0 1 2.19,2.06 2.94,2.94 0 0 1 -1.1,2.77 4,4 0 0 0 3.14,0 c 2,-0.66 4.57,-2.77 1.53,-5.2 -0.25,-0.2 0.19,-0.57 0.34,-0.67 0.15,-0.1 0.82,0.71 0.85,0.54 0.22,-1.25 1.36,-2.6 1.88,-4.94 0.39,-1.74 0.66,-4.23 0.91,-4.35 0.25,-0.12 0.66,0.45 0.65,1.05 a 22.2,22.2 0 0 1 -0.77,5.45 4.55,4.55 0 0 0 0.92,-0.05 c 0.25,0 0.29,0.2 0.05,0.29 -3.78,1.43 -1.65,5.37 -1.07,5.82 a 2.89,2.89 0 0 1 1.45,-2.54 2.66,2.66 0 0 1 3,0.32 2.59,2.59 0 0 1 0.81,2.28 c 2.26,-0.67 3.56,-2 3.77,-3.76 a 4.31,4.31 0 0 0 -0.71,-3 2.21,2.21 0 0 0 -1.65,-0.37 c -0.34,0.06 -0.33,-0.93 -0.1,-0.94 a 3.69,3.69 0 0 0 2.37,-1.5 2.44,2.44 0 0 0 -0.2,-1 c -0.12,-0.34 0.2,-1 0.51,-0.8 2.15,1.6 2.63,1.63 3.37,1.63 a 3.48,3.48 0 0 0 1.7,-0.33 l 0.11,-0.06 -0.33,-0.21 a 3.47,3.47 0 0 1 -1.52,-1.43 2.16,2.16 0 0 1 0.6,-2.5 c 0.39,-0.32 1.44,-0.89 3.19,0 v 0 c -0.78,-0.45 -1.41,-1.47 -2.32,-1.47 -1.07,0 -1,-0.61 -1,-0.61 0,0 0,-0.62 0.47,-0.62 2.93,0 2.54,-0.06 5,-1 0,-1.05 -4.29,-0.48 -4.61,-1.79 0,-0.16 0.12,-0.32 0.34,-0.31 6.5,0.06 6.39,-0.39 7.6,-1.43 -0.27,-0.07 -0.58,0.44 -1.62,0 -1.04,-0.44 -1.44,-1.66 -4.33,-1.63 -0.27,0 -0.44,-0.54 0,-0.54 4.77,0 5.85,-1.37 6.31,-2.15 -0.95,-0.26 -3.66,-0.12 -4.68,-0.48 -0.35,-0.13 -0.08,-0.45 0.24,-0.44 5,0.14 7,-1.48 7.41,-2 -2.12,0 -3.67,-0.17 -5,-0.19 -1.33,-0.02 -1.05,0.26 -1.79,0.14 -0.39,-0.06 -0.82,-0.39 -0.56,-0.48 0.81,-0.3 5.91,-0.83 6.93,-3.47 0,0 -3.71,0.95 -4.95,0.1 -0.23,-0.16 0.05,-0.35 0.2,-0.44 0.78,-0.49 5.58,0.68 6.81,-3 a 14,14 0 0 1 -1.66,0.1 c -3.63,0 -5.24,-1.7 -7.11,-3.66 a 22,22 0 0 0 -5.06,-4.25 l -0.8,-0.48 0.39,-0.84 c 0.4,-0.94 1,-13.53 0.51,-16.31 -2.07,-10.78 -3.92,-11.55 -3,-12 0.92,-0.45 3.68,9.27 4.9,11.27 1.91,3.12 5,5.6 8.32,8.22 6.46,5.14 13.13,10.45 12.34,21.39 a 12.38,12.38 0 0 0 3.19,-12.6 c -0.47,-1.4 -3.06,-4.82 -2.58,-5.3 0.48,-0.48 2.25,4.7 9.07,4.7 a 15.88,15.88 0 0 0 9.27,-2.72 c -4.34,-0.08 -6.76,-1.65 -10.36,-2.42 -2.29,-0.49 -4.71,-0.11 -4.71,-0.37 0,-0.65 5.41,-1.71 5.41,-1.71 3.51,-0.78 5.7,-4.27 6.57,-7 a 32,32 0 0 1 -6.63,3.2 c -4.73,1.82 -5.64,3.57 -6,3.22 -0.36,-0.35 1.27,-1.4 2.28,-4.66 a 18.42,18.42 0 0 0 0.89,-5.17 v -0.42 h -7.31 a 6.43,6.43 0 0 1 -1.83,5.63 m 3.74,-12.09 a 61.29,61.29 0 0 1 -8.08,-0.56 c 0.84,3.41 3.14,4.43 5.34,5.86 h 9 c 1.1,-0.2 4.28,-3.58 5.15,-6.23 -2.05,0.58 -6.9,0.93 -11.45,0.93 m -5.72,-62.33 c 1.54,-1.87 4.33,-5.17 5.85,-6.77 -5.21,-4.58 -6.67,-12.09 -5.07,-14.74 a 3.6,3.6 0 0 1 3.18,-1.65 4.71,4.71 0 0 1 0.53,0 3.82,3.82 0 0 0 -2.86,-2.42 3.43,3.43 0 0 0 -0.56,0 c -1.84,0 -5.44,1.36 -4.77,7.37 0,0.18 -0.31,0.26 -0.34,0.17 -0.44,-1.22 -0.9,-4.48 -1.1,-5.29 -0.2,-0.81 -0.48,-1.67 -0.76,-2.58 a 25.31,25.31 0 0 1 -1.59,-10.75 c -3.09,3.81 -3.25,12.75 -0.09,16.54 0.12,0.13 -0.13,0.47 -0.35,0.47 a 14.46,14.46 0 0 1 -2.26,-3.91 46.73,46.73 0 0 1 -0.88,-6.92 c -4.78,6.59 2.05,13.89 3.12,15.35 0,0 0.17,0.53 -0.29,0.53 -0.46,0 -5,-6.07 -5,-6.89 -2.24,6.55 3.52,9.49 5.84,10.67 0.12,0.07 -0.18,0.69 -0.56,0.69 a 22.9,22.9 0 0 1 -4.7,-2.83 6.11,6.11 0 0 0 1.3,4.78 c 2,2.68 5,2 5,2.7 0,0.7 -2.85,-0.51 -4.38,0.23 -1.36,0.65 -1.43,2.71 -1.32,3.35 a 5.87,5.87 0 0 0 2.12,3.37 3.91,3.91 0 0 1 2.25,-3.52 4.42,4.42 0 0 1 1.71,-0.32 10.73,10.73 0 0 1 6,2.38 m 31.26,25.79 a 8.39,8.39 0 0 0 0,-4.54 15.12,15.12 0 0 1 -3.16,3.36 c -1.42,0.92 -4.57,3.25 -4.92,3.28 -0.09,0 -0.32,-0.29 -0.19,-0.39 a 31.35,31.35 0 0 1 2.71,-2.2 11.09,11.09 0 0 0 4,-3.71 c 2.29,-3.14 1.43,-5.44 1.37,-6.53 a 39.78,39.78 0 0 1 -5.43,4.27 11.54,11.54 0 0 0 -3.33,3.21 c -0.13,0.19 -0.51,0 -0.54,-0.12 a 11.87,11.87 0 0 0 0.26,-2.76 c 0,-6.28 -8.65,-18.85 -10.29,-20.17 a 40.24,40.24 0 0 0 -4.72,4.12 c 5.09,5 7.55,11 8.21,20 0.66,9 -0.88,19.43 -4.68,31.9 -0.12,0.46 -0.26,0.92 -0.43,1.39 a 0.51,0.51 0 0 1 -0.48,0.35 0.41,0.41 0 0 1 -0.16,0 0.53,0.53 0 0 1 -0.34,-0.65 c 0.15,-0.47 0.3,-0.94 0.44,-1.4 a 19,19 0 0 0 -0.7,-11.87 17.48,17.48 0 0 1 -1.31,5.49 15.39,15.39 0 0 0 -0.91,5.3 0.35,0.35 0 0 1 -0.34,0.35 0.35,0.35 0 0 1 -0.35,-0.35 16.22,16.22 0 0 1 0.94,-5.51 c 0.52,-1.67 2.2,-5.88 -0.4,-8.8 a 32.24,32.24 0 0 1 -1.68,5.88 c -0.56,1.58 -1.11,3.17 -1.48,4.66 v 0 0 c -0.55,2.24 -0.66,4.24 0.36,5.59 a 0.52,0.52 0 0 1 -0.1,0.72 0.51,0.51 0 0 1 -0.73,-0.1 c -1.19,-1.58 -1.15,-3.73 -0.62,-6.08 -5.67,-10.52 -8.86,-19.72 -6.2,-30.26 2.55,-10.12 8.36,-16 12.22,-19.64 3.86,-3.64 7.32,-4.39 10.35,-2.79 a 5.34,5.34 0 0 1 2.47,4 5.49,5.49 0 0 0 2.41,-3.56 3.93,3.93 0 0 0 -1.17,-3.1 5.94,5.94 0 0 0 -4.74,-1 c -0.39,-0.62 1.42,-1 2.13,-1 1.06,0 1.62,0.47 2.18,0.47 a 1.38,1.38 0 0 0 0.58,-0.21 6.64,6.64 0 0 0 3.33,-5.65 c -0.22,0.39 -4.71,3.63 -5.51,3.63 -0.49,0 -0.58,-0.35 -0.45,-0.47 1.74,-1.4 5,-3.33 6,-5.17 1.38,-2.34 1.08,-4.54 1.08,-6.24 -0.47,1.08 -5,6.47 -5.69,6.47 -0.31,0 -0.31,-0.31 0,-0.73 2.78,-4 8.32,-8 4.83,-15.15 -0.39,3.46 -5,8.46 -5.12,8.46 -1.36,0 4.43,-5.76 4.43,-10.78 0,-2.57 -0.38,-3.8 -1.4,-4.85 a 20.58,20.58 0 0 1 -2.81,6.44 19.7,19.7 0 0 0 -2.25,4.87 c -0.42,1.66 -0.47,1.91 -1.11,4.92 0,0.15 -0.21,0.34 -0.3,0.25 -0.59,-0.59 0,-2.15 -0.46,-3.65 -0.41,-1.28 -1.67,-2.39 -3.88,-2.39 a 4.26,4.26 0 0 0 -2.12,0.54 4.43,4.43 0 0 0 -1.88,2.21 3.9,3.9 0 0 1 3.27,0.58 c 1.76,1.24 2.54,3.93 2,6.7 -0.86,4 -4.19,7.23 -7.76,10.56 a 82.33,82.33 0 0 0 -6.52,7.57 c -5.06,6.42 -9.13,14.55 -9.32,18.46 -0.06,1.4 0.09,2.57 0,2.73 -0.09,0.16 -0.47,0.41 -0.53,0.15 -0.49,-2 -5.47,-3.84 -7.63,-5.95 a 6.83,6.83 0 0 0 -0.33,4.9 c 0.81,3.64 3.49,3.2 7,5.91 0.3,0.23 -0.22,0.61 -0.39,0.61 -0.17,0 -5.81,-2.79 -6.22,-3.57 a 6.62,6.62 0 0 0 0.14,4.59 c 1,2.83 6,3.68 6.54,5.44 0.11,0.39 -0.34,0.51 -0.53,0.36 -0.92,-0.77 -4.59,-2.34 -5.3,-3.14 a 5.26,5.26 0 0 0 -0.15,3.1 c 2.74,4.63 7.44,4.61 8,7.39 0.07,0.38 -0.3,0.54 -0.49,0.32 -1.53,-1.91 -0.44,-0.52 -5.46,-3.76 -0.32,2.66 -0.1,3.63 0.54,5.1 1.43,3.3 5.5,2.32 7.46,5.75 0.1,0.18 -0.24,0.74 -0.49,0.44 -1.56,-1.85 -2.48,-1.71 -5.07,-2.89 a 8.88,8.88 0 0 0 2,5.41 c 2.24,2 5,1.51 6.15,3.8 0.15,0.31 -0.22,0.47 -0.49,0.47 a 8.58,8.58 0 0 0 -3.79,-1.87 7.65,7.65 0 0 0 5.81,5.38 58.3,58.3 0 0 0 10,0.56 c 4.56,-0.07 9.09,-0.53 10,-1 a 10.62,10.62 0 0 0 5.12,-6.57 c -2.11,1.58 -3.62,1 -4.93,2.47 a 0.4,0.4 0 0 1 -0.66,-0.11 c 0,-0.35 1.49,-1.56 2.19,-1.89 a 15.23,15.23 0 0 0 4.24,-2.25 8.88,8.88 0 0 0 2.73,-5.33 34,34 0 0 0 -6.09,3.56 0.28,0.28 0 0 1 -0.41,-0.24 c 0,-1.25 3.23,-1.93 7,-5.23 1.5,-1.33 2.24,-6 2.08,-7 a 32,32 0 0 1 -2.71,2 c -1.25,0.82 -2.51,1.39 -2.79,1.58 -0.61,0.43 -1,1.13 -1.28,1.13 -0.28,0 -0.33,-0.11 -0.33,-0.29 0,-0.66 1.9,-1.61 4.34,-3.41 a 18.37,18.37 0 0 0 3.59,-3.79 8.1,8.1 0 0 0 1.27,-5.48 6.35,6.35 0 0 1 -2,2.56 40.32,40.32 0 0 1 -3.73,2.14 c -1.55,0.89 -2.09,1.27 -3.09,1.95 -0.13,0.09 -0.39,-0.08 -0.27,-0.23 2,-2.56 3.4,-2.21 5.92,-4.27 a 13,13 0 0 0 3.64,-5.74"
       transform="translate(-75.15,-124.66)"
       fill="#ffffff"
       id="path2" />
    <path
       d="m 241.25,382.78 a 4,4 0 0 0 1.35,2.6 c 0.75,-2 2.77,-3 1.35,-5 a 1.69,1.69 0 0 0 -1.83,-0.19 c -0.75,0.41 -0.94,1.37 -0.87,2.6 M 228,381.47 a 6.45,6.45 0 0 0 -0.07,4.17 16.72,16.72 0 0 1 2.36,-2 c 1,-0.76 1.66,-1.55 1.5,-2.35 a 1.64,1.64 0 0 0 -1.36,-1.24 2.37,2.37 0 0 0 -2.43,1.43 m -4.5,-11.17 a 3.86,3.86 0 0 1 3.28,1.06 c 0.81,0.81 2.62,-1.1 2.41,-2.08 -0.27,-1.24 -3.3,-1.31 -5.69,1 m 1.59,-130 a 15.17,15.17 0 0 0 -4.69,-1.51 11.36,11.36 0 0 0 2.49,2.43 c 1,0 1.76,-0.17 2.06,-0.6 a 1.34,1.34 0 0 0 0.14,-0.32 m -57,96.62 c 2.67,0 3.15,2.59 5.25,1.8 a 1.45,1.45 0 0 0 0.85,-1.51 c -0.11,-0.74 -1.81,-2.87 -6.1,-0.29 M 163.83,293 a 1.9,1.9 0 0 0 -2.29,-0.48 c -1.32,0.66 -3.49,3.12 -3.58,4.26 a 5.23,5.23 0 0 1 2.72,-0.68 c 0.32,0 0.59,0 0.81,0 0,0 0.74,0.06 0.94,0.06 a 2.32,2.32 0 0 0 2,-1 2.14,2.14 0 0 0 -0.57,-2.2 m 5.43,-64 a 1.65,1.65 0 0 0 0.36,-1.77 2.26,2.26 0 0 0 -2.25,-1.19 c -1.34,0.09 -3.28,1.07 -3.39,1.48 a 3.41,3.41 0 0 0 0.78,0.46 c 0.51,0.25 1.69,1 1.69,1 1.22,0.57 2.21,0.59 2.78,0.07 m 0.92,54.85 a 1.54,1.54 0 0 0 0.14,-1.4 l -0.21,-0.4 a 4.29,4.29 0 0 0 -2.69,-1.59 4.77,4.77 0 0 0 -1,-0.11 4.41,4.41 0 0 0 -0.52,0 c 1,1.65 1.73,4 3.12,4 a 1.34,1.34 0 0 0 1.15,-0.51 m 1.63,19.51 a 1.57,1.57 0 0 0 -1.64,-1.88 2,2 0 0 0 -1.87,2 5.09,5.09 0 0 0 0.86,3.43 c 0.81,-2.14 2.55,-1.78 2.65,-3.53 m 5.07,-86.32 a 1.56,1.56 0 0 0 -0.29,-1.84 5.55,5.55 0 0 0 -4.72,-2.05 c 0.22,0.35 1.31,2.14 1.87,3.13 0.56,0.99 0.9,1.69 1.65,1.69 a 1.63,1.63 0 0 0 1.49,-0.93 m 1,26.69 a 1.4,1.4 0 0 0 -1.09,-1.05 2,2 0 0 0 -2.11,0.81 v 0 a 4.5,4.5 0 0 1 -2.18,1.61 4.88,4.88 0 0 0 2.85,0.82 2.29,2.29 0 0 0 2.53,-2.19 m 1.37,105.36 a 1.55,1.55 0 0 0 -1,-1.53 c -0.89,-0.32 -3.39,0.33 -3.15,4.46 a 3,3 0 0 1 1.61,-0.9 c 1.58,-0.36 2.52,-1.1 2.58,-2 m 3.1,-16.89 c 1.49,-1.85 0.15,-4.14 -2.71,-5.43 0.88,2.37 -0.52,4.69 1.09,5.61 a 1.44,1.44 0 0 0 1.62,-0.18 m 7.48,-115.91 a 9.09,9.09 0 0 1 -2.2,2.22 c -0.8,0.69 -1.37,1.43 -1.12,2.19 a 1.36,1.36 0 0 0 1.2,0.92 c 2.19,0.09 2.43,-4.77 2.12,-5.33 m -0.59,81.78 c -0.31,-0.26 -1,0 -1.27,0.14 -0.73,0.43 -0.66,1.86 -0.29,2.61 a 3.51,3.51 0 0 1 -0.05,2.43 c 1.82,-0.76 3.45,-3.66 1.61,-5.18 m 4.13,53.49 a 1.45,1.45 0 0 0 -1.62,0 c -1.43,0.88 0,2.7 -0.71,4.57 3.54,-1.67 2.91,-4.13 2.33,-4.6 M 218.58,241 c 0,-0.83 0,-1.51 0,-2.2 l -0.69,0.11 a 19.6,19.6 0 0 1 -3.08,0.22 c -2.28,0 -6.38,-0.36 -8.24,-2.74 a 4.48,4.48 0 0 1 -0.93,-3 4.05,4.05 0 0 0 -1.26,3.35 4.85,4.85 0 0 0 3.71,4.3 17,17 0 0 0 3.59,0.32 c 1.25,0 2.47,-0.08 3.29,-0.15 l 0.73,-0.06 c 0.71,-0.06 1.17,-0.09 1.49,-0.09 0.32,0 1.12,0 1.4,0 m 23.53,-22.9 a 33.74,33.74 0 0 1 2.77,-9.32 8.14,8.14 0 0 0 -3,2.14 l -0.38,0.38 h -0.43 a 2.38,2.38 0 0 0 -2.63,2.56 c 0,2 3,1.67 2.07,2.63 -0.81,0.81 -3.1,-1.4 -3.32,-1.4 -0.22,0 -2.07,1.65 -2.87,0.85 -0.8,-0.8 2.53,-0.56 2.53,-3.2 a 1.79,1.79 0 0 0 -1.39,-1.84 c -1.16,-0.16 -1.66,-1.28 -2.06,-2.18 -0.61,-1.36 -0.95,-1.82 -1.77,-1.82 -1,0 -1.62,1.15 -2.13,2.16 -0.41,0.81 -0.77,1.69 -1.56,1.79 -0.79,0.1 -1,0.14 -1.09,0.25 a 2.48,2.48 0 0 0 -0.68,1.86 c 0,2.34 3.17,2.24 2.22,3.19 -0.95,0.95 -2.87,-1.29 -3,-1.29 -0.13,0 -2.12,2.16 -2.86,1.42 -0.74,-0.74 2.3,-1.49 2.3,-3.3 a 3.08,3.08 0 0 0 -0.25,-0.9 1.29,1.29 0 0 1 -0.92,-0.68 5.2,5.2 0 0 0 -0.75,0 1.72,1.72 0 0 1 -1.37,-0.93 2.88,2.88 0 0 0 -0.94,-0.93 4.9,4.9 0 0 0 -1.65,-0.54 c 2.34,3.84 3,9.63 3.17,11.81 1.42,0.09 16.83,0.42 19.73,0.1 0,-0.65 0.09,-1.3 0.17,-1.93 -1.62,0 -9,-0.12 -11.53,-0.32 -1.18,-0.09 -0.81,-0.87 0,-0.83 2.16,0.09 6.73,0.22 11.65,0.31 m 14.72,151.39 c -0.5,-1.17 -2.27,-1.59 -2.83,-1.14 a 1.14,1.14 0 0 0 -0.28,1.32 c 0.35,0.84 2.06,1.22 2.9,3 a 3,3 0 0 0 0.21,-3.17"
       transform="translate(-75.15,-124.66)"
       fill="#f8bf00"
       id="path3" />
    <polygon
       points="272.12,143.18 278.5,138.72 278.5,76.89 272.12,76.89 "
       fill="#eceaea"
       id="polygon3" />
    <polygon
       points="278.5,202.78 272.12,207.24 272.12,269.07 278.5,269.07 "
       fill="#183ece"
       id="polygon4" />
    <polygon
       points="278.5,202.78 278.5,138.72 272.12,143.18 272.12,207.24 "
       fill="#e32a2d"
       id="polygon5" />
    <path
       d="m 416.59,217.7 h 7.59 v 37.17 h -8.76 l -16.15,-26 0.69,10.47 v 15.55 h -7.59 V 217.7 h 8.71 l 16.2,26 -0.69,-10.46 z"
       transform="translate(-75.15,-124.66)"
       fill="#0a0b0b"
       id="path5" />
    <path
       d="m 457.74,254.87 -3.13,-8.76 h -15 l -3.19,8.76 h -8 l 13.92,-37.17 h 9.61 l 13.91,37.17 z m -4.09,-48.32 -9.82,7.45 -3.3,-3.34 8.61,-8.6 z m -11.47,32.34 H 452 l -4.88,-13.49 z"
       transform="translate(-75.15,-124.66)"
       fill="#0a0b0b"
       id="path6" />
    <path
       d="m 491.67,254.87 -9.61,-13.38 h -4.19 v 13.38 h -7.6 V 217.7 h 16 q 5.94,0 9.32,3.27 a 11.76,11.76 0 0 1 3.37,8.84 11.54,11.54 0 0 1 -2.18,7.27 10.82,10.82 0 0 1 -6.16,3.83 l 10.41,14 z m -13.8,-30 v 9.93 h 7.53 a 6.39,6.39 0 0 0 4.38,-1.3 4.6,4.6 0 0 0 1.47,-3.64 4.68,4.68 0 0 0 -1.49,-3.66 6.37,6.37 0 0 0 -4.36,-1.33 z"
       transform="translate(-75.15,-124.66)"
       fill="#0a0b0b"
       id="path7" />
    <path
       d="m 507.89,222.59 a 20,20 0 0 1 27.59,0 19.61,19.61 0 0 1 0,27.4 20,20 0 0 1 -27.59,0 19.68,19.68 0 0 1 0,-27.4 z m 22.15,5.1 a 12,12 0 0 0 -16.73,0 12.8,12.8 0 0 0 0,17.2 12,12 0 0 0 16.73,0 12.8,12.8 0 0 0 0,-17.2 z"
       transform="translate(-75.15,-124.66)"
       fill="#0a0b0b"
       id="path8" />
    <path
       d="m 559.85,217.7 a 18.66,18.66 0 0 1 13.57,5.3 18.92,18.92 0 0 1 0,26.55 18.66,18.66 0 0 1 -13.57,5.31 H 546.42 V 217.7 Z m 0,30 a 11.37,11.37 0 1 0 0,-22.73 H 554 v 22.73 z"
       transform="translate(-75.15,-124.66)"
       fill="#0a0b0b"
       id="path9" />
    <path
       d="m 608.23,217.7 h 7.59 v 37.17 h -8.76 l -16.14,-26 0.69,10.47 v 15.55 H 584 V 217.7 h 8.7 l 16.2,26 -0.69,-10.46 z"
       transform="translate(-75.15,-124.66)"
       fill="#0a0b0b"
       id="path10" />
    <path
       d="m 628.41,202 4.51,4.51 -9.82,7.49 -3.29,-3.34 z m -5.84,52.83 V 217.7 h 7.59 v 37.17 z"
       transform="translate(-75.15,-124.66)"
       fill="#0a0b0b"
       id="path11" />
    <path
       d="m 406,295.92 a 57.93,57.93 0 0 1 6.58,1.7 21.83,21.83 0 0 1 4.57,2.15 7.49,7.49 0 0 1 2.94,3.21 11,11 0 0 1 0.88,4.62 11.09,11.09 0 0 1 -1.3,5.45 9.46,9.46 0 0 1 -3.45,3.64 18.27,18.27 0 0 1 -4.52,1.91 18.72,18.72 0 0 1 -4.86,0.63 q -7.59,0 -11.54,-3.58 a 14.17,14.17 0 0 1 -4.65,-9 h 7.65 a 7.1,7.1 0 0 0 2.73,4.19 10.17,10.17 0 0 0 5.76,1.33 8.8,8.8 0 0 0 4.86,-1.11 3.58,3.58 0 0 0 1.67,-3.14 2.51,2.51 0 0 0 -0.93,-2 6,6 0 0 0 -2.25,-1.14 c -0.89,-0.25 -2.46,-0.62 -4.73,-1.12 l -0.4,-0.08 -0.37,-0.08 -0.45,-0.1 a 37.37,37.37 0 0 1 -4.83,-1.28 18.85,18.85 0 0 1 -3.88,-1.91 8,8 0 0 1 -2.89,-3.13 9.85,9.85 0 0 1 -1,-4.57 10.1,10.1 0 0 1 4.14,-8.6 16,16 0 0 1 9.87,-3.08 q 7,0 10.65,3.21 a 13,13 0 0 1 4.33,8.31 h -7.7 q -1.38,-4.46 -7.22,-4.46 a 8.12,8.12 0 0 0 -4.84,1.19 3.73,3.73 0 0 0 -1.59,3.11 2.32,2.32 0 0 0 1.36,2.23 24.92,24.92 0 0 0 5.41,1.5 z"
       transform="translate(-75.15,-124.66)"
       fill="#0a0b0b"
       id="path12" />
    <path
       d="m 441.7,281.42 q 6.06,0 9.64,3.35 a 11.89,11.89 0 0 1 3.59,9.13 12.16,12.16 0 0 1 -3.62,9.27 q -3.6,3.42 -9.61,3.42 h -8 v 12 h -7.59 v -37.17 z m -0.32,17.95 a 6,6 0 0 0 4.36,-1.43 6,6 0 0 0 0,-7.89 6.14,6.14 0 0 0 -4.36,-1.4 h -7.7 v 10.72 z"
       transform="translate(-75.15,-124.66)"
       fill="#0a0b0b"
       id="path13" />
    <path
       d="m 464.14,286.31 a 20,20 0 0 1 27.58,0 19.61,19.61 0 0 1 0,27.4 20,20 0 0 1 -27.58,0 19.68,19.68 0 0 1 0,-27.4 z m 22.14,5.1 a 12,12 0 0 0 -16.72,0 12.8,12.8 0 0 0 0,17.2 12,12 0 0 0 16.72,0 12.8,12.8 0 0 0 0,-17.2 z"
       transform="translate(-75.15,-124.66)"
       fill="#0a0b0b"
       id="path14" />
    <path
       d="m 524.06,318.6 -9.61,-13.39 h -4.19 v 13.39 h -7.6 v -37.18 h 16 q 5.94,0 9.32,3.27 a 11.74,11.74 0 0 1 3.37,8.84 11.57,11.57 0 0 1 -2.18,7.28 10.86,10.86 0 0 1 -6.16,3.82 l 10.41,14 z m -13.8,-30 v 9.93 h 7.54 a 6.45,6.45 0 0 0 4.38,-1.3 5.27,5.27 0 0 0 0,-7.31 6.36,6.36 0 0 0 -4.35,-1.32 z"
       transform="translate(-75.15,-124.66)"
       fill="#0a0b0b"
       id="path15" />
    <path
       d="m 563.1,281.42 v 7.23 h -10.73 v 30 h -7.6 v -30 H 534.1 v -7.23 z"
       transform="translate(-75.15,-124.66)"
       fill="#0a0b0b"
       id="path16" />
    <path
       d="m 571.14,286.31 a 20,20 0 0 1 27.59,0 19.63,19.63 0 0 1 0,27.4 20,20 0 0 1 -27.59,0 19.68,19.68 0 0 1 0,-27.4 z m 22.14,5.1 a 12,12 0 0 0 -16.72,0 12.8,12.8 0 0 0 0,17.2 12,12 0 0 0 16.72,0 12.8,12.8 0 0 0 0,-17.2 z"
       transform="translate(-75.15,-124.66)"
       fill="#0a0b0b"
       id="path17" />
    <path
       d="m 631,281.42 h 8 l -12.29,37.18 h -9.56 L 605,281.42 h 8 l 8.92,28.2 z"
       transform="translate(-75.15,-124.66)"
       fill="#0a0b0b"
       id="path18" />
    <path
       d="M 667.39,281.42 H 675 v 37.18 h -8.76 l -16.14,-26 0.69,10.46 v 15.54 h -7.6 v -37.18 h 8.71 l 16.2,26 -0.71,-10.42 z"
       transform="translate(-75.15,-124.66)"
       fill="#0a0b0b"
       id="path19" />
    <path
       d="m 687.57,265.76 4.51,4.51 -9.82,7.44 -3.3,-3.35 z m -5.84,52.84 v -37.18 h 7.59 v 37.18 z"
       transform="translate(-75.15,-124.66)"
       fill="#0a0b0b"
       id="path20" />
    <path
       d="m 419.45,382.32 -3.13,-8.76 h -15 l -3.19,8.76 h -8 L 404,345.15 h 9.61 l 13.91,37.17 z m -15.56,-16 h 9.78 l -4.89,-13.49 z"
       transform="translate(-75.15,-124.66)"
       fill="#0a0b0b"
       id="path21" />
    <path
       d="m 445.37,362.14 h 20.34 v 20.18 h -6.48 v -6.27 a 10.64,10.64 0 0 1 -4.65,5 15.56,15.56 0 0 1 -7.88,1.95 17.7,17.7 0 0 1 -13.18,-5.45 19.51,19.51 0 0 1 25.36,-29.41 17.2,17.2 0 0 1 6.51,9.37 h -8.13 a 9.71,9.71 0 0 0 -3.9,-4.22 11.57,11.57 0 0 0 -6,-1.52 10.91,10.91 0 0 0 -8.34,3.4 12.28,12.28 0 0 0 -3.19,8.76 12.46,12.46 0 0 0 3.06,8.63 10.6,10.6 0 0 0 8.36,3.43 11.63,11.63 0 0 0 6.74,-2 9.37,9.37 0 0 0 3.83,-5.47 h -12.45 z"
       transform="translate(-75.15,-124.66)"
       fill="#0a0b0b"
       id="path22" />
    <path
       d="M 497.41,352.37 H 480 v 7.49 h 16 v 7.22 h -16 v 8 h 17.37 v 7.22 h -25 v -37.15 h 25 z"
       transform="translate(-75.15,-124.66)"
       fill="#0a0b0b"
       id="path23" />
    <path
       d="m 526.35,345.15 h 7.59 v 37.17 h -8.76 L 509,356.3 l 0.69,10.46 v 15.56 h -7.6 v -37.17 h 8.71 l 16.2,26 -0.69,-10.46 z"
       transform="translate(-75.15,-124.66)"
       fill="#0a0b0b"
       id="path24" />
    <path
       d="m 567.13,345.15 v 7.22 H 556.4 v 29.95 h -7.59 v -29.95 h -10.67 v -7.22 z"
       transform="translate(-75.15,-124.66)"
       fill="#0a0b0b"
       id="path25" />
    <path
       d="m 594.58,345.15 h 7.7 v 22.14 q 0,7.6 -4.24,11.63 a 17.27,17.27 0 0 1 -22.2,0 q -4.25,-4 -4.25,-11.63 v -22.14 h 7.7 v 21.72 q 0,8.86 7.65,8.87 7.65,0.01 7.64,-8.87 z"
       transform="translate(-75.15,-124.66)"
       fill="#0a0b0b"
       id="path26" />
    <path
       d="m 630.43,382.32 -9.61,-13.38 h -4.2 v 13.38 H 609 v -37.17 h 16 q 6,0 9.32,3.26 a 11.75,11.75 0 0 1 3.37,8.85 11.56,11.56 0 0 1 -2.17,7.27 10.84,10.84 0 0 1 -6.16,3.82 l 10.4,14 z m -13.81,-29.95 v 9.93 h 7.54 a 6.39,6.39 0 0 0 4.38,-1.3 5.27,5.27 0 0 0 0,-7.3 6.34,6.34 0 0 0 -4.36,-1.33 z"
       transform="translate(-75.15,-124.66)"
       fill="#0a0b0b"
       id="path27" />
    <path
       d="m 671,382.32 -3.13,-8.76 h -15 l -3.19,8.76 h -8 l 13.92,-37.17 h 9.61 l 13.91,37.17 z m -15.56,-16 h 9.77 l -4.88,-13.49 z"
       transform="translate(-75.15,-124.66)"
       fill="#0a0b0b"
       id="path28" />
  </g>
</svg>
